<svg width="22" height="21" viewBox="0 0 22 21" fill="none" xmlns="http://www.w3.org/2000/svg">
<path d="M3.4629 10.2477C2.59389 8.73232 2.17428 7.49498 1.92127 6.24073C1.54707 4.38574 2.40341 2.5737 3.82202 1.41747C4.42158 0.928805 5.10888 1.09577 5.46342 1.73182L6.26383 3.16779C6.89827 4.30598 7.21548 4.87507 7.15256 5.47842C7.08965 6.08177 6.66184 6.57316 5.80622 7.55597L3.4629 10.2477ZM3.4629 10.2477C5.22189 13.3147 7.98227 16.0767 11.0529 17.8377M11.0529 17.8377C12.5682 18.7067 13.8055 19.1263 15.0598 19.3793C16.9148 19.7535 18.7269 18.8971 19.883 17.4785C20.3717 16.879 20.2048 16.1917 19.5687 15.8371L18.1328 15.0367C16.9945 14.4023 16.4255 14.0851 15.8221 14.148C15.2188 14.2109 14.7273 14.6387 13.7446 15.4943L11.0529 17.8377Z" stroke="white" stroke-width="1.83333" stroke-linejoin="round"/>
</svg>
